# xmcd
#
# Track frame offsets:
#       150
#       11700
#       22607
#       32560
#       47337
#       57945
#       69638
#       80681
#       95375
#       106525
#       120075
#       132581
#       147538
#       158559
#       171590
#       182813
#       196524
#       207384
#       219778
#       230229
#       242482
#       256832
#       277788
#       291803
#       302311
#
# Disc length: 4262 seconds
#
# Revision: 3
# Processed by: cddbd v1.4PL0 Copyright (c) Steve Scherf et al.
# Submitted via: MusiCat 1.1b3
#
DISCID=4710a419
DTITLE=Marvin Gaye - The Marvin Gaye Collection Disc 2 - Duets - [CD2]
DYEAR=1900
DGENRE=
TTITLE0=Once Upon a Time (with Mary Wells)
TTITLE1=What's the Matter With You Baby (with Mary Wells)
TTITLE2=I'm Yours, Your Mine (with Mary Wells)
TTITLE3=All I Got (with Mary Wells)
TTITLE4=You Can Dance (with Mary Wells)
TTITLE5=Rilleh (with Uma Page)
TTITLE6=So Good to Be Loved By You (with Uma Page)
TTITLE7=Was it a Dream (with Uma Page)
TTITLE8=Steadies (with Uma Page)
TTITLE9=It Takes Two (with Kim Weston)
TTITLE10=Exactly Like You (with Kim Weston)
TTITLE11=Teach Me Tonight (with Kim Weston)
TTITLE12=Let's Do it (let's Fall in Love) (with Kim Weston)
TTITLE13=It's Me (with Kim Weston)
TTITLE14=Ain't No Mountain High Enough (with Tammi Terrell)
TTITLE15=Your Precious Love (with Tammi Terrell)
TTITLE16=If I Could Build My Whole World Around You (with Tammi Terrell)
TTITLE17=If This World Were Mine (with Tammi Terrell)
TTITLE18=Ain't Nothing Like the Real Thing (with Tammi Terrell)
TTITLE19=You're All I Need to Get By (with Tammi Terrell)
TTITLE20=You Are Everything (with Diana Ross)
TTITLE21=You're a Special Part of Me (with Diana Ross)
TTITLE22=My Mistake (with Diana Ross)
TTITLE23=Don't Knock My Love (with Diana Ross)
TTITLE24=Pops, We Love You (with D. Ross, Smokey, Stevie W.)
EXTD=0\n\n\n
EXTT0=
EXTT1=
EXTT2=
EXTT3=
EXTT4=
EXTT5=
EXTT6=
EXTT7=
EXTT8=
EXTT9=
EXTT10=
EXTT11=
EXTT12=
EXTT13=
EXTT14=
EXTT15=
EXTT16=
EXTT17=
EXTT18=
EXTT19=
EXTT20=
EXTT21=
EXTT22=
EXTT23=
EXTT24=
PLAYORDER=
